{
  "asset": {
    "generator": "Khronos glTF Blender I/O v3.6.27",
    "version": "2.0"
  },
  "scene": 0,
  "scenes": [
    {
      "name": "Scene",
      "nodes": [
        0
      ]
    }
  ],
  "nodes": [
    {
      "mesh": 0,
      "name": "wooden_spoon"
    }
  ],
  "materials": [
    {
      "doubleSided": true,
      "name": "wooden_spoon",
      "normalTexture": {
        "index": 0
      },
      "pbrMetallicRoughness": {
        "baseColorTexture": {
          "index": 1
        },
        "metallicFactor": 0,
        "metallicRoughnessTexture": {
          "index": 2
        }
      }
    }
  ],
  "meshes": [
    {
      "name": "Plane",
      "primitives": [
        {
          "attributes": {
            "POSITION": 0,
            "NORMAL": 1,
            "TEXCOORD_0": 2
          },
          "indices": 3,
          "material": 0
        }
      ]
    }
  ],
  "textures": [
    {
      "sampler": 0,
      "source": 0
    },
    {
      "sampler": 0,
      "source": 1
    },
    {
      "sampler": 0,
      "source": 2
    }
  ],
  "images": [
    {
      "mimeType": "image/jpeg",
      "name": "wooden_spoon_nor_gl",
      "uri": "textures/wooden_spoon_nor_gl_2k.jpg"
    },
    {
      "mimeType": "image/jpeg",
      "name": "wooden_spoon_diff",
      "uri": "textures/wooden_spoon_diff_2k.jpg"
    },
    {
      "mimeType": "image/jpeg",
      "name": "wooden_spoon_rough",
      "uri": "textures/wooden_spoon_arm_2k.jpg"
    }
  ],
  "accessors": [
    {
      "bufferView": 0,
      "componentType": 5126,
      "count": 3554,
      "max": [
        0.04293268918991089,
        0.009082847274839878,
        0.08387435972690582
      ],
      "min": [
        -0.043727416545152664,
        -0.016030678525567055,
        -0.1937607228755951
      ],
      "type": "VEC3"
    },
    {
      "bufferView": 1,
      "componentType": 5126,
      "count": 3554,
      "type": "VEC3"
    },
    {
      "bufferView": 2,
      "componentType": 5126,
      "count": 3554,
      "type": "VEC2"
    },
    {
      "bufferView": 3,
      "componentType": 5123,
      "count": 19728,
      "type": "SCALAR"
    }
  ],
  "bufferViews": [
    {
      "buffer": 0,
      "byteLength": 42648,
      "byteOffset": 0,
      "target": 34962
    },
    {
      "buffer": 0,
      "byteLength": 42648,
      "byteOffset": 42648,
      "target": 34962
    },
    {
      "buffer": 0,
      "byteLength": 28432,
      "byteOffset": 85296,
      "target": 34962
    },
    {
      "buffer": 0,
      "byteLength": 39456,
      "byteOffset": 113728,
      "target": 34963
    }
  ],
  "samplers": [
    {
      "magFilter": 9729,
      "minFilter": 9987
    }
  ],
  "buffers": [
    {
      "byteLength": 153184,
      "uri": "wooden_spoon.bin"
    }
  ]
}